<svg width="70" height="70" xmlns="http://www.w3.org/2000/svg" >
<g fill="#09e">
<path d="M 5,34.32 C 5,44.36 10.16,53.19 17.96,58.33 11.14,50.53 6.584,40.7 5.341,29.87 5.114,31.32 5,32.8 5,34.32 Z" />
<path d="m 15.03,28.62 c 0,-6.71 1.38,-13.1 3.86,-18.902 -4.23,2.552 -7.73,6.172 -10.172,10.472 -0.05,0.91 -0.07,1.81 -0.07,2.73 0,15.55 6.772,29.52 17.542,39.11 0.98,0.27 1.98,0.48 3,0.64 C 20.44,53.97 15.03,41.93 15.03,28.62 Z" />
<path d="m 65,37.46 c -3.59,-5.97 -10.13,-9.98 -17.61,-9.98 -2.76,0 -5.4,0.55 -7.8,1.54 0.84,-0.11 1.7,-0.17 2.56,-0.17 10.71,0 19.38,8.67 19.38,19.38 0,0 0,0.1 0,0.1 1.83,-3.28 3.05,-6.95 3.47,-10.86 z" />
<path d="m 27.16,34.19 c 4.33,-7.29 12.28,-12.18 21.38,-12.18 5.52,0 10.62,1.8 14.74,4.85 -1.18,-4.39 -3.37,-8.37 -6.31,-11.67 -0.3,0 -0.6,0 -0.91,0 -12.96,0 -24.08,7.83 -28.9,19.02 z" />
<path d="M 47.25,8.517 C 43.44,6.652 39.15,5.6 34.63,5.6 34.07,5.6 33.52,5.618 32.97,5.648 25.29,13.07 20.5,23.47 20.5,35 c 0,4.29 0.66,8.42 1.89,12.31 -0.34,-1.93 -0.52,-3.91 -0.52,-5.93 0,-15.79 10.77,-29.06 25.38,-32.863 z" />
</g>
<circle fill="#049" cx="41.93" cy="49.82" r="14.58" />
</svg>
